# xmcd
#
# Track frame offsets:
#	150
#	10510
#	20357
#	36672
#	50007
#	61390
#	79132
#	92882
#	106376
#	119014
#	135362
#	149020
#	167122
#	183845
#	192970
#	206450
#	215828
#	229317
#	236778
#	253572
#
# Disc length: 3674 seconds
#
# Revision: 0
# Processed by: cddbd v1.5.2PL0 Copyright (c) Steve Scherf et al.
# Submitted via: EZCDAudioConverter 2.1.7.1
#
DISCID=280e5814
DTITLE=V/A - A Real Good Time Revisited 2/2
DYEAR=1900
DGENRE=
TTITLE0=This Ain't The Summer Of Love
TTITLE1=Uppskärarjack (Jack The Ripper)
TTITLE2=Don't Push Me Around
TTITLE3=She's Gone
TTITLE4=Don't Lie To Me
TTITLE5=Plastic Surgeon
TTITLE6=Just Another Loner
TTITLE7=Carry On
TTITLE8=Too Much Talk
TTITLE9=Days After Tomorrow
TTITLE10=Lost Revenge
TTITLE11=Sudden Death
TTITLE12=Thirtynine Steps
TTITLE13=She Blind (But I Don't Mind)
TTITLE14=Hey Conductor
TTITLE15=Sally
TTITLE16=Fastest Car Around!
TTITLE17=Bopalina Bopalina Ow Mow Mow Mow
TTITLE18=Pigvalley Beach
TTITLE19=Prime Mover
EXTD=
EXTT0=
EXTT1=
EXTT2=
EXTT3=
EXTT4=
EXTT5=
EXTT6=
EXTT7=
EXTT8=
EXTT9=
EXTT10=
EXTT11=
EXTT12=
EXTT13=
EXTT14=
EXTT15=
EXTT16=
EXTT17=
EXTT18=
EXTT19=
PLAYORDER=
